<?xml version="1.0" encoding="iso-8859-1"?>
<!-- Generator: Adobe Illustrator 19.0.0, SVG Export Plug-In . SVG Version: 6.00 Build 0)  -->
<svg version="1.1" id="Capa_1" xmlns="http://www.w3.org/2000/svg" xmlns:xlink="http://www.w3.org/1999/xlink" x="0px" y="0px"
	 viewBox="0 0 512.001 512.001" style="enable-background:new 0 0 512.001 512.001;" xml:space="preserve">
<path style="fill:#E2395A;" d="M460.914,495.393c-6.783-62.938-33.338-110.975-54.419-140.19
	c-22.923-31.767-44.345-48.705-45.245-49.411c-4.22-3.305-9.882-4.106-14.854-2.105c-4.972,2.003-8.497,6.507-9.248,11.814
	c-6.921,48.951-23.416,88.2-53.484,127.261c-3.011,3.911-3.904,9.053-2.39,13.751c1.514,4.697,5.242,8.35,9.97,9.767l150.45,45.09
	c4.741,1.422,9.974,0.426,13.895-2.833C459.453,505.323,461.452,500.389,460.914,495.393z"/>
<path style="fill:#FC495C;" d="M228.337,442.761c-30.068-39.061-46.563-78.31-53.484-127.261c-0.751-5.308-4.276-9.812-9.248-11.814
	c-4.973-2.002-10.635-1.2-14.854,2.105c-0.9,0.706-22.322,17.645-45.245,49.412c-21.081,29.215-47.636,77.252-54.419,140.189
	c-0.538,4.996,1.461,9.931,5.326,13.143c3.91,3.251,9.142,4.26,13.895,2.833l150.45-45.09c4.728-1.417,8.456-5.069,9.97-9.767
	C232.241,451.813,231.348,446.672,228.337,442.761z"/>
<path style="fill:#FD6B82;" d="M371,256c0,58.94-8.9,105.7-28.02,147.15c-18.67,40.48-45.38,71.99-71.98,99.88
	c-1.4,1.47-2.81,2.94-4.21,4.39c-2.82,2.93-6.72,4.58-10.79,4.58s-7.97-1.66-10.79-4.58c-1.43-1.48-2.83-2.94-4.21-4.39
	c-14.73-15.48-26.4-28.92-36.44-41.97c-33.4-43.4-51.73-86.99-59.41-141.36c-2.79-19.69-4.15-40.53-4.15-63.7
	c0-92.49,37.01-181.78,104.21-251.42C248.03,1.65,251.93,0,256,0s7.97,1.65,10.79,4.58C333.99,74.22,371,163.51,371,256z"/>
<path style="fill:#FC495C;" d="M266.79,4.58C263.97,1.65,260.07,0,256,0v512c4.07,0,7.97-1.65,10.79-4.58
	c1.4-1.45,2.81-2.92,4.21-4.39c26.6-27.89,53.31-59.4,71.98-99.88C362.1,361.7,371,314.94,371,256
	C371,163.51,333.99,74.22,266.79,4.58z"/>
<path style="fill:#FAD557;" d="M286.82,192.167c-7.303-10.994-18.536-17.3-30.82-17.3s-23.518,6.306-30.82,17.3
	c-4.585,6.9-13.895,8.778-20.795,4.195c-6.9-4.584-8.778-13.894-4.195-20.795c12.77-19.224,33.633-30.7,55.81-30.7
	c22.177,0,43.041,11.477,55.81,30.7c4.583,6.901,2.705,16.211-4.195,20.795C300.74,200.928,291.423,199.095,286.82,192.167z"/>
<path style="fill:#FC495C;" d="M271,327v176.03c-1.4,1.47-2.81,2.94-4.21,4.39c-2.82,2.93-6.72,4.58-10.79,4.58
	s-7.97-1.66-10.79-4.58c-1.43-1.48-2.83-2.94-4.21-4.39V327c0-8.28,6.72-15,15-15S271,318.72,271,327z"/>
<path style="fill:#FCB12B;" d="M311.811,175.567c-12.77-19.224-33.633-30.7-55.811-30.7v30c12.284,0,23.518,6.306,30.82,17.3
	c4.603,6.928,13.92,8.761,20.795,4.195C314.516,191.778,316.394,182.469,311.811,175.567z"/>
<path style="fill:#E2395A;" d="M256,312v200c4.07,0,7.97-1.65,10.79-4.58c1.4-1.45,2.81-2.92,4.21-4.39V327
	C271,318.72,264.28,312,256,312z"/>
<g>
</g>
<g>
</g>
<g>
</g>
<g>
</g>
<g>
</g>
<g>
</g>
<g>
</g>
<g>
</g>
<g>
</g>
<g>
</g>
<g>
</g>
<g>
</g>
<g>
</g>
<g>
</g>
<g>
</g>
</svg>
